<svg xmlns="http://www.w3.org/2000/svg" viewBox="0 0 64 64" role="img" aria-label="Water billing">
  <rect width="64" height="64" rx="14" fill="#0f766e"/>
  <path d="M31.8 10.4c-6.9 8.5-11.4 15.2-11.4 22.1 0 7 5 12.1 11.6 12.1 6.8 0 11.7-5.1 11.7-12.1 0-6.9-4.7-13.6-11.9-22.1Z" fill="none" stroke="#ffffff" stroke-width="4.8" stroke-linejoin="round"/>
  <path d="M44.7 29.8c-3.9 5-6.3 8.6-6.3 12.4 0 4.5 3.3 7.6 7.4 7.6s7.4-3.1 7.4-7.6c0-3.8-2.7-7.4-7-12.4-.4-.5-1.1-.5-1.5 0Z" fill="none" stroke="#dffcf7" stroke-width="3.8" stroke-linejoin="round"/>
  <path d="M22 24.8c-4.6 5.9-7.2 10-7.2 14.3 0 4.9 3.6 8.4 8.2 8.4 2.4 0 4.5-.9 6-2.5" fill="none" stroke="#b7f3ea" stroke-width="3.8" stroke-linecap="round" stroke-linejoin="round"/>
</svg>
